<?xml version="1.0" standalone="no"?>
<!DOCTYPE svg PUBLIC "-//W3C//DTD SVG 20010904//EN"
 "http://www.w3.org/TR/2001/REC-SVG-20010904/DTD/svg10.dtd">
<svg version="1.0" xmlns="http://www.w3.org/2000/svg"
 width="150.000000pt" height="150.000000pt" viewBox="0 0 150.000000 150.000000"
 preserveAspectRatio="xMidYMid meet">
<metadata>
Created by potrace 1.14, written by Peter Selinger 2001-2017
</metadata>
<g transform="translate(0.000000,150.000000) scale(0.100000,-0.100000)"
fill="#000000" stroke="none">
<path d="M734 1448 c-4 -18 -9 -38 -10 -44 -1 -6 -10 -38 -19 -70 -10 -33 -18
-63 -19 -69 -1 -5 -5 -19 -9 -30 -3 -11 -11 -39 -17 -62 l-11 -43 -130 131
c-72 72 -133 129 -136 125 -6 -5 58 -256 78 -304 18 -46 12 -48 -76 -28 -25 5
-245 65 -263 72 -27 9 -4 -19 118 -141 78 -79 121 -128 115 -134 -6 -6 -21
-12 -35 -15 -14 -3 -52 -12 -85 -21 -33 -9 -67 -18 -75 -20 -8 -2 -28 -8 -45
-15 -16 -6 -30 -11 -30 -10 0 1 -17 -1 -38 -5 -22 -4 -35 -11 -30 -16 7 -7
137 -46 216 -64 10 -2 26 -6 35 -9 9 -3 37 -10 61 -16 l44 -12 -134 -134 c-73
-74 -128 -134 -122 -134 7 0 63 14 125 31 62 17 131 35 153 41 22 5 48 11 58
14 20 6 19 -9 -8 -104 -10 -31 -19 -64 -20 -72 -2 -8 -8 -30 -14 -47 -5 -18
-8 -33 -6 -33 2 0 -3 -16 -11 -35 -32 -78 -12 -68 116 60 97 97 133 126 139
116 5 -7 19 -52 31 -100 12 -47 30 -114 41 -149 10 -35 18 -68 16 -74 -1 -6 3
-12 9 -15 10 -3 31 57 49 144 18 81 53 197 61 200 5 1 65 -53 134 -122 69 -69
126 -121 128 -117 1 5 -18 84 -42 177 -25 93 -43 171 -41 173 2 2 19 -1 38 -7
19 -7 43 -14 53 -16 10 -2 71 -18 134 -34 63 -17 119 -31 125 -31 5 0 -50 60
-124 134 l-134 134 54 15 c69 20 143 40 149 42 75 16 150 39 150 46 0 5 -3 9
-7 10 -34 3 -317 81 -326 89 -5 4 48 65 117 134 69 70 126 130 126 135 0 4
-44 -5 -97 -21 -54 -15 -110 -30 -125 -33 -15 -3 -39 -10 -53 -15 -28 -11 -85
-22 -85 -17 0 1 18 70 41 152 44 163 53 205 44 205 -3 0 -62 -57 -131 -126
-69 -69 -129 -122 -133 -118 -5 5 -27 82 -51 172 -24 89 -47 162 -51 162 -4 0
-11 -15 -15 -32z m35 -78 c6 -25 20 -79 32 -120 11 -41 22 -83 24 -93 2 -9 7
-21 10 -27 3 -5 -15 -30 -40 -55 l-46 -45 -40 40 c-48 47 -48 47 1 220 18 63
33 121 33 128 1 23 14 -2 26 -48z m-134 -292 c-3 -18 -11 -45 -16 -60 -10 -24
-13 -25 -42 -16 -39 12 -59 16 -73 17 -10 1 -18 24 -40 111 -2 8 -15 55 -29
105 -14 49 -25 93 -25 98 0 4 52 -44 116 -107 111 -110 116 -116 109 -148z
m414 101 c-22 -85 -42 -156 -44 -157 -3 -3 -33 -12 -97 -27 -20 -4 -25 1 -32
36 -2 13 -7 36 -11 51 -6 25 3 38 106 142 63 62 115 113 116 112 1 -1 -16 -72
-38 -157z m-713 -135 l142 -37 16 -55 c8 -30 13 -58 11 -62 -2 -4 -29 -12 -60
-19 l-56 -13 -117 118 c-64 64 -108 114 -97 111 11 -3 84 -23 161 -43z m519 3
c4 -17 9 -39 11 -48 10 -37 -77 -28 -91 9 -5 14 55 83 67 76 3 -2 9 -19 13
-37z m370 -74 l-116 -116 -52 14 c-59 16 -65 28 -46 94 13 42 15 44 73 60 34
8 71 18 83 20 12 3 34 10 48 15 14 5 25 8 25 5 0 -2 13 2 29 8 80 34 71 15
-44 -100z m-522 76 c32 -37 33 -40 8 -61 -13 -11 -28 -14 -45 -10 -30 8 -30
10 -22 62 8 48 22 50 59 9z m-101 -78 c4 -3 0 -21 -7 -38 -11 -27 -20 -33 -43
-33 -26 0 -31 4 -36 36 -4 19 -9 41 -12 49 -4 10 4 11 43 3 26 -6 51 -13 55
-17z m173 -11 c-6 -10 -55 0 -55 11 0 4 8 13 18 18 13 8 20 6 29 -6 7 -9 10
-19 8 -23z m219 8 c-10 -28 -11 -34 -13 -53 -1 -16 -38 -20 -57 -7 -18 12 -33
47 -25 60 4 6 25 14 46 18 22 3 42 8 44 10 10 9 12 -6 5 -28z m-104 -40 c0
-11 -4 -10 -35 4 -29 13 -32 25 -7 31 16 3 42 -18 42 -35z m-235 12 c-10 -11
-24 -20 -31 -20 -7 0 -10 8 -7 20 4 13 14 20 31 20 24 0 25 0 7 -20z m155 -20
c12 0 40 -19 65 -46 34 -35 46 -56 51 -91 26 -176 -182 -283 -303 -156 -46 48
-59 99 -44 166 16 74 62 117 142 132 12 2 24 7 27 9 2 3 13 1 23 -4 10 -6 27
-10 39 -10z m-239 -69 c-15 -28 -28 -27 -33 4 -4 17 0 25 11 28 25 6 34 -9 22
-32z m391 3 c-5 -29 -18 -31 -32 -5 -16 30 -12 39 13 34 19 -4 23 -10 19 -29z
m-438 -17 c8 -21 6 -31 -9 -47 -24 -27 -30 -26 -72 15 -25 24 -31 36 -22 39 8
2 28 9 44 14 40 14 48 10 59 -21z m540 13 l26 -9 -32 -36 c-37 -40 -48 -42
-72 -17 -11 13 -14 28 -10 50 6 28 10 31 35 27 15 -3 39 -9 53 -15z m-634 -56
l45 -45 -46 -44 -46 -43 -89 25 c-49 14 -120 33 -158 43 l-69 17 49 16 c27 8
87 25 134 37 47 12 94 26 105 30 11 5 22 9 25 9 3 1 26 -19 50 -45z m800 12
c30 -9 67 -18 81 -21 14 -3 44 -11 66 -19 23 -8 44 -13 47 -10 3 2 3 0 -1 -4
-7 -8 -148 -49 -200 -58 -12 -2 -34 -9 -48 -14 -46 -17 -70 -11 -108 28 l-38
39 42 42 c45 48 52 48 159 17z m-687 -45 c2 -10 1 -25 -4 -32 -8 -11 -12 -10
-24 5 -11 14 -12 23 -4 33 16 18 26 16 32 -6z m445 2 c12 -21 -15 -54 -28 -34
-9 15 -2 51 11 51 4 0 12 -8 17 -17z m-474 -52 c14 -16 16 -26 8 -48 -10 -30
-34 -33 -88 -13 l-25 10 33 35 c38 40 48 42 72 16z m545 -16 l33 -35 -24 -9
c-51 -19 -88 -23 -89 -9 0 7 -2 21 -4 31 -4 20 23 57 40 57 6 0 25 -16 44 -35z
m-489 -45 c14 -26 6 -40 -21 -33 -12 4 -18 11 -15 20 3 8 6 19 6 24 0 16 19 9
30 -11z m379 -31 c-29 -18 -38 10 -11 37 16 17 17 17 20 -5 2 -13 -2 -27 -9
-32z m-494 7 c50 -13 52 -16 42 -61 -18 -75 -15 -72 -85 -90 -37 -9 -105 -28
-151 -41 -47 -13 -87 -22 -89 -19 -6 6 213 225 225 225 4 0 31 -6 58 -14z
m768 -97 c60 -60 107 -112 105 -114 -6 -6 -255 62 -287 78 -18 9 -28 26 -37
62 -7 27 -11 52 -8 55 6 6 82 28 103 29 8 1 64 -49 124 -110z m-237 23 c3 -15
7 -33 9 -41 4 -10 -1 -12 -17 -7 -13 4 -35 9 -50 12 -20 5 -28 13 -28 28 0 28
19 53 45 58 22 4 34 -10 41 -50z m-402 32 c9 -8 16 -26 16 -38 0 -19 -8 -24
-47 -33 -27 -6 -49 -11 -50 -10 -1 1 4 23 10 50 9 39 14 47 33 47 12 0 30 -7
38 -16z m75 -18 c9 -10 8 -16 -3 -26 -18 -14 -32 -7 -39 20 -6 24 24 28 42 6z
m222 -8 c-6 -15 -15 -22 -27 -20 -29 6 -31 12 -10 28 31 22 47 18 37 -8z
m-101 -25 c0 -2 -7 -11 -15 -19 -13 -14 -17 -14 -30 0 -19 19 -19 24 3 28 18
4 42 -1 42 -9z m-62 -26 l21 -22 -39 -39 c-28 -27 -41 -35 -44 -25 -2 8 -9 29
-15 48 -14 43 -15 40 12 51 34 13 42 12 65 -13z m127 13 c27 -10 27 -24 4 -88
-9 -23 -9 -23 -48 15 l-40 38 21 22 c24 26 27 27 63 13z m-220 -63 c8 -28 15
-55 15 -60 0 -11 -219 -232 -224 -226 -5 6 62 259 77 288 11 22 66 47 105 47
7 1 19 -22 27 -49z m336 34 l47 -13 36 -141 c21 -78 40 -151 43 -162 3 -11
-46 33 -111 97 -64 64 -116 119 -116 123 0 27 33 113 43 111 7 -2 33 -9 58
-15z m-126 -122 c-7 -11 -74 -254 -77 -276 -4 -33 -16 -1 -54 140 l-42 152 46
44 45 45 44 -47 c24 -26 41 -52 38 -58z"/>
</g>
</svg>
