<?xml version="1.0" standalone="no"?>
<!DOCTYPE svg PUBLIC "-//W3C//DTD SVG 20010904//EN"
 "http://www.w3.org/TR/2001/REC-SVG-20010904/DTD/svg10.dtd">
<svg version="1.0" xmlns="http://www.w3.org/2000/svg"
 width="170.000000pt" height="170.000000pt" viewBox="0 0 170.000000 170.000000"
 preserveAspectRatio="xMidYMid meet">
<metadata>
Created by potrace 1.14, written by Peter Selinger 2001-2017
</metadata>
<g transform="translate(0.000000,170.000000) scale(0.100000,-0.100000)"
fill="#000000" stroke="none">
<path d="M805 1648 c-6 -17 -20 -21 -68 -21 -13 0 -15 -3 -8 -10 13 -13 15
-28 4 -26 -33 5 -53 -3 -53 -21 0 -17 -7 -20 -41 -20 -36 0 -41 -2 -36 -20 5
-18 0 -20 -40 -20 -40 0 -44 -2 -38 -20 5 -16 2 -20 -18 -20 -16 0 -26 -7 -30
-20 -4 -15 -14 -20 -41 -20 -25 0 -40 -6 -48 -20 -11 -17 -24 -20 -89 -20
-110 0 -134 -7 -161 -46 -13 -19 -31 -34 -40 -34 -11 0 -18 -8 -18 -20 0 -13
-7 -20 -20 -20 -17 0 -20 -7 -20 -42 -1 -42 -20 -84 -33 -71 -4 3 -7 -49 -7
-117 0 -103 3 -127 17 -144 17 -20 17 -20 1 -7 -16 12 -18 11 -18 -3 0 -9 8
-16 21 -16 13 0 20 -6 18 -18 -4 -45 1 -62 21 -62 13 0 20 -7 20 -20 0 -13 7
-20 20 -20 12 0 20 -7 20 -16 0 -9 9 -18 20 -21 19 -5 20 -14 20 -144 0 -132
1 -139 20 -139 13 0 20 -7 20 -20 0 -18 20 -26 53 -21 11 2 9 -13 -4 -26 -7
-7 -5 -10 8 -10 63 0 71 -3 66 -24 -5 -16 -1 -20 13 -19 47 5 64 0 64 -20 0
-17 7 -20 40 -20 38 0 54 -13 28 -23 -7 -3 2 -8 20 -12 29 -7 37 -16 33 -38
-1 -4 4 -7 11 -6 44 5 68 -2 68 -21 0 -17 7 -20 40 -20 33 0 40 -3 40 -20 0
-16 7 -20 30 -20 21 0 30 -5 30 -16 0 -9 -5 -12 -12 -8 -7 4 -8 3 -4 -4 10
-17 15 -15 26 11 l9 22 0 -22 c1 -21 21 -30 55 -24 5 1 4 -4 -2 -12 -7 -8 -9
-17 -5 -20 9 -10 25 -9 19 1 -2 4 0 14 5 22 8 12 9 11 7 -5 -3 -17 4 -20 40
-23 37 -3 42 -1 42 17 0 21 16 26 63 22 11 -2 17 5 17 18 0 20 16 26 61 22 11
-1 16 5 15 16 0 12 7 19 22 21 20 3 27 13 23 35 -2 11 14 8 28 -6 11 -9 13 -9
7 1 -5 8 1 12 18 12 19 0 26 5 26 20 0 17 7 20 40 20 33 0 40 3 38 17 -2 12 7
19 31 24 19 4 41 5 50 2 10 -4 9 0 -4 10 -11 8 -17 19 -12 23 4 4 7 1 7 -7 0
-11 2 -11 10 1 6 10 10 11 10 3 0 -7 5 -13 11 -13 5 0 7 5 4 10 -3 6 -1 10 6
10 6 0 9 -8 6 -19 -3 -15 1 -20 22 -23 38 -5 141 6 141 15 0 4 0 11 0 16 0 6
17 11 38 13 25 2 37 8 37 18 0 8 9 16 20 18 22 3 50 68 34 78 -5 3 -9 14 -9
25 0 12 -7 19 -18 19 -16 0 -21 13 -25 67 0 7 -3 12 -6 11 -25 -2 -31 5 -29
42 1 32 5 40 20 40 18 0 22 20 21 107 0 14 5 19 14 16 8 -3 11 -9 6 -12 -5 -3
-6 -17 -2 -31 8 -28 11 -17 13 52 1 26 -2 44 -7 41 -4 -3 -6 -11 -3 -19 3 -8
1 -14 -4 -14 -6 0 -11 6 -12 13 0 6 -2 17 -3 22 -2 6 -3 22 -4 36 -1 18 -8 28
-21 32 -22 6 -21 -6 -21 205 -1 78 -4 140 -9 137 -5 -3 -12 -1 -15 5 -4 6 -1
9 7 8 7 -2 13 6 13 17 0 12 -7 20 -17 20 -10 0 -23 6 -30 14 -7 8 -8 11 -2 8
6 -3 11 0 11 7 0 7 -7 13 -16 13 -52 0 -61 4 -61 23 0 17 -7 20 -41 20 -36 0
-41 2 -36 20 4 16 0 20 -23 20 -24 0 -27 3 -23 21 4 14 1 20 -8 19 -8 -1 -28
-2 -46 -1 -26 1 -30 4 -26 21 5 18 0 20 -36 20 -23 0 -40 4 -37 8 10 16 -12
33 -42 34 -18 1 -33 7 -37 16 -4 12 -3 12 9 3 10 -8 16 -9 21 -1 3 5 4 11 1
11 -3 1 -10 3 -16 4 -5 1 -21 3 -35 4 -18 1 -25 7 -25 21 0 17 -7 20 -40 20
-33 0 -40 3 -40 20 0 17 -7 20 -40 20 -34 0 -40 3 -40 20 0 18 -6 20 -55 19
-43 -2 -56 -6 -60 -21z m25 -8 c0 -5 -5 -10 -11 -10 -5 0 -7 5 -4 10 3 6 8 10
11 10 2 0 4 -4 4 -10z m-72 -45 c-3 -3 -9 2 -12 12 -6 14 -5 15 5 6 7 -7 10
-15 7 -18z m587 -185 c-3 -5 -12 -10 -18 -10 -7 0 -6 4 3 10 19 12 23 12 15 0z
m188 -125 c-3 -9 -8 -14 -10 -11 -3 3 -2 9 2 15 9 16 15 13 8 -4z m53 -161 c1
-9 0 -13 -4 -10 -3 4 -7 14 -8 22 -1 9 0 13 4 10 3 -4 7 -14 8 -22z m0 -129
c-1 -8 -5 -17 -8 -21 -5 -4 -4 16 1 34 3 9 9 -1 7 -13z m-1315 -628 c-10 -9
-11 -8 -5 6 3 10 9 15 12 12 3 -3 0 -11 -7 -18z m288 -160 c0 -9 -2 -8 -6 1
-2 6 -10 9 -15 6 -7 -4 -8 -2 -4 5 9 13 26 5 25 -12z"/>
<path d="M452 1454 c-7 -8 -8 -14 -3 -14 10 0 25 19 20 25 -2 1 -10 -3 -17
-11z"/>
<path d="M0 1180 c0 -5 4 -10 9 -10 6 0 13 5 16 10 3 6 -1 10 -9 10 -9 0 -16
-4 -16 -10z"/>
<path d="M1130 160 c0 -5 5 -10 11 -10 5 0 7 5 4 10 -3 6 -8 10 -11 10 -2 0
-4 -4 -4 -10z"/>
</g>
</svg>
